<svg xmlns:xlink="http://www.w3.org/1999/xlink" xmlns="http://www.w3.org/2000/svg" aria-label="user avatar" viewBox="-40.94377899169922 -146.29818725585938 68.82828521728516 163.4471893310547" preserveAspectRatio="xMidYMid meet" width="300"  height="400" ><path fill="#E6BBA8" d="M15.081-53.286c-0.002-0.015-1.362,1.076-1.624,1.416c-0.594,0.769-2.099,2.785-1.367,3.577 c0.489,0.53,1.609-1.94,2.23-1.021c0.434,0.644,0.694,0.598,0.598,2.123c-0.125,1.954-0.885,4.086-0.453,4.305 c1.296,0.655,0.881-0.775,1.42-2.109c-0.065,2.015-0.94,2.774-0.333,2.874c0.64,0.104,0.928-0.545,1.453-0.793 c0.25-0.118,0.534-0.199,0.747-0.376c0.073-0.06,0.426-0.678,0.377-0.67c1.072-0.163,1.274-1.868,1.438-2.66 c0.189-0.92,0.376-1.917,0.286-2.866c-0.154-1.646-0.498-1.738-0.45-3.377C19.604-57.361,15.507-57.251,15.081-53.286z"/></svg>