<svg xmlns:xlink="http://www.w3.org/1999/xlink" xmlns="http://www.w3.org/2000/svg" aria-label="user avatar" viewBox="-40.94377899169922 -146.29818725585938 68.82828521728516 163.4471893310547" preserveAspectRatio="xMidYMid meet" width="300"  height="400" ><path fill="#F4D5BF" d="M18.53-147.879c-16.939-11.238-45.261-5.801-45.313,18.288c-1.175,6.797,1.464,12.425,2.455,18.964 c0.642,4.237,0.642,11.561,4.912,15.498c5.321,4.906,7.729,8.94,13.414,8.059c18.518-1.141,27.444-15.75,31.036-22.9 C29.5-118.861,30.287-140.079,18.53-147.879z"/></g><path fill="#E6BBA8" d="M-6.002-87.071c9.987-0.616,17.18-5.15,22.255-10.317c-0.196,0.126-0.388,0.242-0.585,0.379 c-10.609,7.37-21.081,1.718-26.87-5.697c-3.606-4.619-1.73-6.257-5.018-10.793c-6.28-8.667-5.614-29.5,1.67-36.626 c0.073-0.071,0.129-0.166,0.192-0.249c-7.23,3.642-12.402,10.511-12.425,20.784c-1.175,6.797,1.464,12.425,2.455,18.964 c0.642,4.237,0.642,11.561,4.912,15.498C-14.096-90.224-11.687-86.19-6.002-87.071z"/><path fill="#E6BBA8" d="M-11.204-103.479c-1.278-2.785-2.022-7.768-1.585-9.582c-1.919-6.011-7.175-4.234-7.8-0.965 C-21.316-110.219-17.442-103.925-11.204-103.479z"/><path fill="#F4D5BF" d="M-12.78-108.481c-0.312-1.877-0.4-3.647-0.176-4.579c-0.644-2.017-1.665-3.141-2.759-3.643 c-0.397-0.072-0.817-0.062-1.261,0.073c-2.003,0.608-1.191,4.361-0.227,5.473C-15-108.617-13.575-108.036-12.78-108.481z"/></g></svg>