<svg xmlns:xlink="http://www.w3.org/1999/xlink" xmlns="http://www.w3.org/2000/svg" aria-label="user avatar" viewBox="-40.94377899169922 -146.29818725585938 68.82828521728516 163.4471893310547" preserveAspectRatio="xMidYMid meet" width="300"  height="400" ><path fill="#F4D5BF" d="M-2.735,3.448c1.652-1.857,0.137-3.94-0.319-7.583c0.16-3.554-5.893-4.074-5.544,0.613 c-0.775,1.054-2.338,2.045-4.386,2.252c-1.685,0.171-3.556,3.216-0.372,3.958C-5.8,4.447-3.902,4.759-2.735,3.448z"/><path fill="#E6BBA8" d="M-12.668,2.847c0.072-0.156,0.135-0.325,0.177-0.522c0.348-1.623,0.05-1.892,1.825-2.695 c1.184-0.535,2.421-0.949,3.212-2.089c0.94-1.354,1.213-2.882,1.372-4.441c-1.383,0.096-2.684,1.135-2.517,3.378 c-0.775,1.054-2.338,2.045-4.386,2.252c-1.685,0.171-3.556,3.216-0.372,3.958C-13.116,2.744-12.897,2.794-12.668,2.847z"/></g></svg>