<svg xmlns:xlink="http://www.w3.org/1999/xlink" xmlns="http://www.w3.org/2000/svg" aria-label="user avatar" viewBox="-40.94377899169922 -146.29818725585938 68.82828521728516 163.4471893310547" preserveAspectRatio="xMidYMid meet" width="300"  height="400" ><path fill="#F4D5BF" d="M14.158-23.159c-0.053-1.5-1.598-7.889-3.038-8.543c-1.56-0.71-3.821-0.046-4.703,1.562 C5.583-28.622,7.089-26.5,7.5-24.583C8.086-21.867,7.862-8.307,7.902-7.401c0.057,1.149,3.891,1.81,4.431-0.433 c0.639-2.635-0.208-5.994,0.667-8.583C13.494-17.873,14.238-20.878,14.158-23.159z"/><path fill="#E6BBA8" d="M11.12-31.702c-1.56-0.71-3.821-0.046-4.703,1.562C5.583-28.622,7.089-26.5,7.5-24.583 c0.267,1.236,0.366,4.717,0.398,8.229c1.203-3.833,2.036-8.509,6.243-7.01C13.982-25.152,12.505-31.073,11.12-31.702z"/></g></svg>