<svg xmlns:xlink="http://www.w3.org/1999/xlink" xmlns="http://www.w3.org/2000/svg" aria-label="user avatar" viewBox="-40.94377899169922 -146.29818725585938 68.82828521728516 163.4471893310547" preserveAspectRatio="xMidYMid meet" width="300"  height="400" ><path fill="#F4D5BF" d="M10.167-72.567c1.094-3.048,2.045-9.704,0.958-12.183C10.299-86.632,6.5-86.949,6.5-86.949l-0.291-6.421 c-3.903-4.089-9.138-0.379-9.138-0.379l-0.749,7.289c0,0-4.949,0.883-6.374,4.586c-1.067,2.771,1.621,4.096,1.518,5.125 c-0.72,7.167,2.296,8.168,2.097,13.189c-0.129,3.263-0.524,5.143-1.672,8.436c-0.708,2.031-3.401,9.25-1.025,10.823 c6.818,4.516,21.897,2.205,19.302-7.842c-0.753-2.917-1.572-5.75-2.284-8.886C7.289-63.646,9.335-70.251,10.167-72.567z"/><path fill="#E6BBA8" d="M-3.341-42.781C-10-46.432-6.082-55-2.836-61.611C-1.908-63.5-5.309-73.326-4.777-76 c0.258-1.297,1.405-6.286,1.528-7.625c0.082-0.896-0.141-1.865-0.552-2.811c-0.741,0.157-4.953,1.188-6.25,4.561 c-1.067,2.771,1.621,4.096,1.518,5.125c-0.72,7.167,2.296,8.168,2.097,13.189c-0.129,3.263-0.524,5.143-1.672,8.436 c-0.708,2.031-3.401,9.25-1.025,10.823c1.795,1.189,4.165,1.9,6.633,2.125C-2.785-42.391-3.054-42.624-3.341-42.781z"/><path fill="#E6BBA8" d="M6.5-86.949l-0.291-6.421c-3.903-4.089-9.138-0.379-9.138-0.379l-0.749,7.289 C-3.678-86.461,2.375-90.125,6.5-86.949z"/></g><path fill="#E6BBA8" d="M3.957-56.905c0.085-1.658,0.101-3.29,0.054-4.946c-0.029-0.986-0.018-5.011-0.018-5.011 S1.759-58.912,3.957-56.905z"/><path fill="#E6BBA8" d="M4.953-75.026C3.804-73.5,1.752-72.29,0.651-71.137c0.785-0.028,3.287-0.77,4.06-0.805 c0.731-0.033,2.123,0.378,2.706,0.805C6.63-72.567,5.417-73.417,4.953-75.026z"/><path fill="#E6BBA8" d="M7.471-44.379c-0.09-0.002-1.235,0.665-2.141,0.462c-0.692-0.155-1.294-0.744-1.818-1.583 c-1.013,0.875-1.647,1.313-4.237,1.924c-1.52,0.358-3.084,0.23-4.543-0.288c-0.669-0.237-0.879-0.414-1.354-0.993 c-0.232-0.283-0.751-1.205-1.229-1.061c-0.712,0.213-0.777,1.206-0.711,1.964C-4.061-41.377,3.353-41.447,7.471-44.379z"/></g></svg>