<svg xmlns:xlink="http://www.w3.org/1999/xlink" xmlns="http://www.w3.org/2000/svg" aria-label="user avatar" viewBox="-40.94377899169922 -146.29818725585938 68.82828521728516 163.4471893310547" preserveAspectRatio="xMidYMid meet" width="300"  height="400" ><path fill="#F4D5BF" d="M-24.041-37.49c-1.213,0.009-0.946-0.579-1.07-1.309c-0.083-0.486,0.055-3.956,0.552-5.267 c0.61-1.614,2.527-4.144,3.704-5.688c1.136-4.126,6.581-2.523,3.904,1.865c-0.691,2.217,0.608,3.446-0.19,5.138 c-0.17,0.363-0.659,3.638-1.27,3.253c-1.142-0.72-0.185-2.732-0.533-3.354c-0.591,0.225-1.043,0.698-1.417,1.233 c-0.263,0.376-1.308,3.176-1.593,3.16c-0.771-0.043-0.377-1.827-0.138-2.121C-22.435-40.16-23.329-37.496-24.041-37.49z"/></svg>