<svg xmlns:xlink="http://www.w3.org/1999/xlink" xmlns="http://www.w3.org/2000/svg" aria-label="user avatar" viewBox="-40.94377899169922 -146.29818725585938 68.82828521728516 163.4471893310547" preserveAspectRatio="xMidYMid meet" width="300"  height="400" ><path fill="#F4D5BF" d="M-0.583-18.75c0.141-1.571-0.434-8.502-1.778-9.368c-1.458-0.934-3.838-0.56-4.869,1.042 c-0.853,1.326,0.237,4.359,0.397,6.409C-6.606-17.76-8.03-4.08-8.108-3.13C-8.201-1.925-4.5-0.809-3.96-3.167 c0.65-2.845,0.836-5.624,1.543-8.667C-2.053-13.398-0.798-16.358-0.583-18.75z"/><path fill="#E6BBA8" d="M-4.662-27.104c-0.342,0.581-0.554,1.223-0.671,1.887c-0.22-0.958-0.41-1.967-0.558-3.003 c-0.533,0.258-1.009,0.631-1.339,1.145c-0.853,1.326,0.237,4.359,0.397,6.409C-6.606-17.76-8.03-4.08-8.108-3.13 c-0.023,0.299,0.188,0.593,0.527,0.829c0.042-0.054,0.087-0.101,0.127-0.158c1.466-2.111,1.312-4.64,1.627-7.059 c0.353-2.705,0.657-5.394,0.762-8.154C-4.948-20.747-3.605-24.058-4.662-27.104z"/></g></svg>