<svg xmlns:xlink="http://www.w3.org/1999/xlink" xmlns="http://www.w3.org/2000/svg" aria-label="user avatar" viewBox="-40.94377899169922 -146.29818725585938 68.82828521728516 163.4471893310547" preserveAspectRatio="xMidYMid meet" width="300"  height="400" ><path fill="#F4D5BF" d="M-7.583-26.25C-5.97-20.674-1.816-23.714-1.25-27C-0.787-29.674,0.325-38.394,0-42.11 c0.089-2.644-0.667-4.723-3-6.39c-4.548-3.249-6.372-1.79-7,2.068C-10.422-43.846-8.168-28.266-7.583-26.25z"/><path fill="#E6BBA8" d="M-4.662-27.104c-0.342,0.581-0.554,1.223-0.671,1.887c-1.07-13.09-1.207-16.876,2.306-17.24 c-1.97-0.126-3.097-1.228-3.769-2.581c-0.821-1.653-0.839-3.489-0.148-5.243C-9.15-50.794-9.553-49.176-10-46.432 c-0.422,2.586,1.832,18.166,2.417,20.182c0.743,2.57,2.026,3.297,3.249,3.025C-4.207-24.539-4.225-25.844-4.662-27.104z"/></g></svg>