<svg xmlns:xlink="http://www.w3.org/1999/xlink" xmlns="http://www.w3.org/2000/svg" aria-label="user avatar" viewBox="-40.94377899169922 -146.29818725585938 68.82828521728516 163.4471893310547" preserveAspectRatio="xMidYMid meet" width="300"  height="400" ><path fill="#F4D5BF" d="M-21.899-45.582c0.006-0.014,0.979,1.434,1.127,1.835c0.337,0.912,1.172,3.284,0.237,3.822 c-0.625,0.36-0.957-2.333-1.824-1.639c-0.607,0.484-0.842,0.363-1.204,1.848c-0.463,1.902-0.374,4.164-0.852,4.244 c-1.433,0.239-0.61-1.002-0.727-2.437c-0.539,1.942,0.071,2.928-0.54,2.842c-0.643-0.091-0.723-0.797-1.15-1.19 c-0.204-0.188-0.451-0.35-0.6-0.582c-0.052-0.08-0.205-0.774-0.16-0.752c-0.975-0.475-0.66-2.163-0.58-2.968 c0.094-0.935,0.213-1.941,0.582-2.821c0.638-1.524,0.994-1.511,1.437-3.09C-25.002-50.82-21.125-49.494-21.899-45.582z"/></svg>