<svg xmlns:xlink="http://www.w3.org/1999/xlink" xmlns="http://www.w3.org/2000/svg" aria-label="user avatar" viewBox="-40.94377899169922 -146.29818725585938 68.82828521728516 163.4471893310547" preserveAspectRatio="xMidYMid meet" width="300"  height="400" ><path fill="#F4D5BF" d="M-11.544-7.146c-1.893,0.191-2.585,2.196-2.362,3.676c-0.823,1.645-1.196,3.732-0.729,4.836 c0.624,1.472,3.175,1.585,4.341,2.589c1.699,1.463,2.612,1.771,4.818,1.676c1.282-0.055,4.163-0.538,3.898-2.644 C-1.811,1.112-6.046,0.182-8.25-3.34C-8.328-4.916-8.78-7.427-11.544-7.146z"/><path fill="#E6BBA8" d="M-5.476,5.63c0.802-0.035,2.228-0.236,3.12-0.897C-4.36,4.67-6.25,4.884-8.106,3.936 c-1.073-0.549-1.332-1.37-2.332-1.811c-0.663-0.292-1.917-0.286-2.438-0.875c-0.903-1.02-0.128-2.467-0.063-3.625 c0.037-0.653,0.264-1.107,0.082-1.689c-0.242-0.776-0.132-1.625-0.075-2.46c-0.83,0.75-1.131,2.022-0.976,3.054 c-0.823,1.645-1.196,3.732-0.729,4.836c0.624,1.472,3.175,1.585,4.341,2.589C-8.595,5.417-7.681,5.725-5.476,5.63z"/></svg>