<svg xmlns:xlink="http://www.w3.org/1999/xlink" xmlns="http://www.w3.org/2000/svg" aria-label="user avatar" viewBox="-40.94377899169922 -146.29818725585938 68.82828521728516 163.4471893310547" preserveAspectRatio="xMidYMid meet" width="300"  height="400" ><path fill="#F4D5BF" d="M-7.963-25.176c-1.762,5.577-6.048,1.982-6.537-1.324c-0.399-2.689-1.28-11.562-0.625-15 c-1.017-3.146,0.14-7.107,2-8.394c4.652-3.22,7.179,1.513,7.714,5.394C-5.05-41.897-7.323-27.193-7.963-25.176z"/><path fill="#E6BBA8" d="M-14.5-26.5c0.183,1.235,0.896,2.51,1.809,3.332c0.12-0.57,0.305-1.159,0.193-1.749 c-1.136-6-0.835-12.905-0.252-16.169c-0.583-2.498-0.575-4.32-0.472-6.496c0.038-0.803,0.121-1.593,0.21-2.382 c-0.039,0.026-0.074,0.042-0.113,0.069c-1.86,1.287-3.017,5.248-2,8.394C-15.78-38.062-14.899-29.189-14.5-26.5z"/></svg>