<svg xmlns:xlink="http://www.w3.org/1999/xlink" xmlns="http://www.w3.org/2000/svg" aria-label="user avatar" viewBox="-40.94377899169922 -146.29818725585938 68.82828521728516 163.4471893310547" preserveAspectRatio="xMidYMid meet" width="300"  height="400" ><path fill="#F4D5BF" d="M-15.503-17.938c0.014-1.508,1.255-7.246,2.687-7.946c1.553-0.761,3.396-1.021,4.316,0.571 c1.066,1.839,0.052,3.939-0.313,5.875C-9.329-16.693-9.108-3.91-9.063-3C-9-1.749-12.833-1.204-13.438-3.438 c-0.713-2.625-0.175-5.426-1.125-8.001C-15.098-12.885-15.524-15.645-15.503-17.938z"/><path fill="#E6BBA8" d="M-14.563-11.438c0.95,2.575,0.412,5.375,1.125,8.001c0.17,0.63,1.147,1.292,1.672,1.526 c0.018-0.118-0.473-1.146-0.466-1.26c0.037-0.653-1.566-10.386-1.654-13.079c-0.115-3.5,1.412-6.86,1.388-8.667 c-0.005-0.362-0.021-0.724-0.046-1.086c-0.091,0.04-0.183,0.076-0.272,0.119c-1.431,0.7-2.672,6.438-2.687,7.946 C-15.524-15.645-15.098-12.885-14.563-11.438z"/></svg>