<svg xmlns:xlink="http://www.w3.org/1999/xlink" xmlns="http://www.w3.org/2000/svg" aria-label="user avatar" viewBox="-40.94377899169922 -146.29818725585938 68.82828521728516 163.4471893310547" preserveAspectRatio="xMidYMid meet" width="300"  height="400" ><g><path fill="#F4D5BF" d="M-11.888-65.667c-1.194-2.607-3.056-5.393-4.324-8.99c-0.753-2.138-1.121-5.052,0.019-7.524 c0.866-1.878,5.82-3.359,5.82-3.359l0.912-6.023c4.003-4.042,8.345-0.219,8.345-0.219l0.919,6.127c0,0,5.25-0.113,6.438,3.53 c0.754,2.313-0.965,4.106-0.866,5.143C6.066-69.729,3.025-68.113,3-63.337c-0.017,3.283,2.109,7.98,2.833,11.17 c0.566,2.486,0.726,4.84-1.333,6.75c-5.9,5.472-19.339,4.333-20.047-2.598c-0.308-3.015,1.544-6.454,2.312-9.513 C-12.476-60.562-11.266-64.308-11.888-65.667z"/><path fill="#E6BBA8" d="M-10.374-85.54l0.912-6.023c4.003-4.042,8.345-0.219,8.345-0.219l0.863,5.822 C0.564-82.458-4.808-81.689-10.374-85.54z"/></g><path fill="#E6BBA8" d="M-10.374-85.54l0.912-6.023c4.003-4.042,8.345-0.219,8.345-0.219l0.863,5.822 C0.564-82.458-4.808-81.689-10.374-85.54z"/><path fill="#E6BBA8" d="M-6.088-84.868c-0.133,0.815,0.288,1.604,0.547,2.355c-1.589-0.349-3.308-0.733-4.962-0.824 c0.595,0.033,1.508,0.693,2.097,0.904c1.166,0.417,2.345,0.835,3.542,1.153c0.988,0.263,3.119,1.308,4.003,0.678 c0.449-0.32,0.399-0.882,0.834-1.252c0.477-0.406,1.104-0.629,1.558-1.066c-0.049,0.047-1.201-0.134-1.378-0.115 c-1.103,0.115-1.935,1.547-3.116,1.162C-4.224-82.285-5.401-83.789-6.088-84.868z"/><path fill="#F4D5BF" d="M-2.63-81.815c1.292-0.019,1.629-2.104,1.82-3.093c-1.587,0.997-3.248,0.29-4.844-0.33 C-5.271-83.801-4.25-81.791-2.63-81.815z"/><path fill="#E6BBA8" d="M-8.927-81.102c-0.08-0.091-1.064-1.482-1.167-1.4c0.249-0.199,0.569-0.388,0.92-0.428 c-0.549-0.562-1.669-0.793-2.397-1.086c0.166-0.438,0.524-0.905,0.703-1.363c-1.273,0.43-4.627,1.685-5.326,3.2 c-1.14,2.472-0.772,5.386-0.019,7.524c1.268,3.597,3.129,6.383,4.324,8.99c0.623,1.359-0.587,5.105-1.348,8.14 c-0.767,3.059-2.62,6.498-2.312,9.513c0.173,1.698,1.115,3.046,2.519,4.037c-0.13-0.492-0.312-0.971-0.353-1.453 C-13.917-51.75-8.667-59.451-8.026-64C-7.769-65.833-12.451-76.083-8.927-81.102z"/></svg>