<svg xmlns:xlink="http://www.w3.org/1999/xlink" xmlns="http://www.w3.org/2000/svg" aria-label="user avatar" viewBox="-40.94377899169922 -146.29818725585938 68.82828521728516 163.4471893310547" preserveAspectRatio="xMidYMid meet" width="300"  height="400" ><g><path fill="#F4D5BF" d="M-15.878-81.813c3.666-1.438,4,3.236,2.816,5.938c-1.052,2.404-3.911,12.144-5.313,14.438 c-1.313,1.708-3.74,2.573-3.875-0.688C-22.349-64.561-19.34-80.455-15.878-81.813z"/><path fill="#E6BBA8" d="M-19.394-71.168c0.395-1.04,0.935-2.043,1.371-3.082c0.208-0.496,0.454-0.88,0.522-1.417 c0.11-0.86-0.004-1.586,0.281-2.433c0.353-1.045,0.841-2.011,1.784-2.819c0.462-0.396,1.055-0.683,1.484-1.036 c-0.5-0.182-1.131-0.171-1.928,0.142c-3.462,1.357-6.471,17.251-6.372,19.688c0.047,1.145,0.38,1.772,0.846,2.042 c0.196-0.262,0.375-0.536,0.513-0.834c0.463-0.999,0.629-2.034,0.646-3.137c-0.343,0.572-0.861,1.166-1.088,1.778 c0.016-1.64,0.39-3.043,0.731-4.641C-20.3-68.341-19.915-69.797-19.394-71.168z"/></g></svg>