<svg xmlns:xlink="http://www.w3.org/1999/xlink" xmlns="http://www.w3.org/2000/svg" aria-label="user avatar" viewBox="-40.94377899169922 -146.29818725585938 68.82828521728516 163.4471893310547" preserveAspectRatio="xMidYMid meet" width="300"  height="400" ><path fill="#F4D5BF" d="M16.655-42.371c1.154,0.066,0.91-1.146,1.067-1.767c0.105-0.415,0.241-0.565,0.47-0.943 c0.28-0.462,0.206-2.837-0.196-3.988c-0.494-1.416-1.819-3.438-2.856-4.82c-0.859-3.598-6.128-2.485-3.815,1.413 c0.539,1.938,0.188,4.373,0.856,5.865c0.143,0.32,0.668,1.362,1.258,1.038c0.606-0.332-0.216-1.928,0.149-2.445 c0.41,0.166,0.982,0.413,1.28,0.718C15.223-46.938,16.103-42.891,16.655-42.371z"/></svg>