<svg xmlns:xlink="http://www.w3.org/1999/xlink" xmlns="http://www.w3.org/2000/svg" aria-label="user avatar" viewBox="-40.94377899169922 -146.29818725585938 68.82828521728516 163.4471893310547" preserveAspectRatio="xMidYMid meet" width="300"  height="400" ><g><path fill="#F4D5BF" d="M-21.054-63.337c4.251-2.525,3.642,4.102,1.429,7.399c-2.826,4.211-1,11.029-4.283,11.029 C-27.563-44.909-24.045-61.56-21.054-63.337z"/><path fill="#E6BBA8" d="M-20.264-63.72c-0.09,0.034-0.192,0.088-0.288,0.132c-0.295,0.427-0.617,0.864-0.783,1.312 c0.003-0.308,0.029-0.601,0.055-0.894c-2.262,1.878-4.709,11.687-4.089,16.103c1.446-1.969,0.993-4.758,1.601-7.104 c0.286-1.102,0.11-2.434,0.54-3.445c0.526-1.239,1.766-2.068,2.337-3.301C-20.476-61.813-20.307-62.742-20.264-63.72z"/></g></svg>